HIERARCHY
ROOT Hips
{
	OFFSET 0.000000 0.000000 0.000000
	CHANNELS 6 Xposition Yposition Zposition Xrotation Yrotation Zrotation
	JOINT LeftUpLeg_virtual
	{
		OFFSET 0.000000 0.000000 0.000000
		CHANNELS 3 Xrotation Yrotation Zrotation
		JOINT LeftUpLeg
		{
			OFFSET 15.427100 -6.655098 0.678600
			CHANNELS 3 Xrotation Yrotation Zrotation
			JOINT LeftLeg
			{
				OFFSET 4.081073 -39.591068 13.024000
				CHANNELS 3 Xrotation Yrotation Zrotation
				JOINT LeftFoot
				{
					OFFSET -4.081074 -37.707932 -15.979700
					CHANNELS 3 Xrotation Yrotation Zrotation
					JOINT LeftToeBase
					{
						OFFSET 5.346399 -15.068900 20.645000
						CHANNELS 3 Xrotation Yrotation Zrotation
						JOINT LeftToe_End
						{
							OFFSET 2.754700 0.931300 11.300900
							CHANNELS 3 Xrotation Yrotation Zrotation
							End Site
							{
								OFFSET 0 0 0
							}
						}
					}
				}
			}
		}
	}
	JOINT RightUpLeg_virtual
	{
		OFFSET 0.000000 0.000000 0.000000
		CHANNELS 3 Xrotation Yrotation Zrotation
		JOINT RightUpLeg
		{
			OFFSET -15.569500 -6.655098 0.678600
			CHANNELS 3 Xrotation Yrotation Zrotation
			JOINT RightLeg
			{
				OFFSET -4.081825 -39.591045 13.023800
				CHANNELS 3 Xrotation Yrotation Zrotation
				JOINT RightFoot
				{
					OFFSET 4.081824 -37.707954 -15.979600
					CHANNELS 3 Xrotation Yrotation Zrotation
					JOINT RightToeBase
					{
						OFFSET -5.346400 -15.068900 20.645000
						CHANNELS 3 Xrotation Yrotation Zrotation
						JOINT RightToe_End
						{
							OFFSET -2.754700 0.931300 11.300900
							CHANNELS 3 Xrotation Yrotation Zrotation
							End Site
							{
								OFFSET 0 0 0
							}
						}
					}
				}
			}
		}
	}
	JOINT Spine_virtual
	{
		OFFSET 0.000000 0.000000 0.000000
		CHANNELS 3 Xrotation Yrotation Zrotation
		JOINT Spine
		{
			OFFSET -0.279200 12.230698 -2.892100
			CHANNELS 3 Xrotation Yrotation Zrotation
			JOINT Spine1
			{
				OFFSET -0.232667 10.192268 -1.242267
				CHANNELS 3 Xrotation Yrotation Zrotation
				JOINT Spine1_split
				{
					OFFSET -0.232667 10.192268 -1.242267
					CHANNELS 3 Xrotation Yrotation Zrotation
					JOINT Spine2
					{
						OFFSET -0.232667 10.192268 -1.242267
						CHANNELS 3 Xrotation Yrotation Zrotation
						JOINT Neck_virtual
						{
							OFFSET 0.000000 0.000000 0.000000
							CHANNELS 3 Xrotation Yrotation Zrotation
							JOINT Neck
							{
								OFFSET -0.418800 17.814194 8.416900
								CHANNELS 3 Xrotation Yrotation Zrotation
								JOINT Head
								{
									OFFSET 0.000000 7.031097 3.806800
									CHANNELS 3 Xrotation Yrotation Zrotation
									JOINT HeadTop_End
									{
										OFFSET 0.000000 24.646606 12.978600
										CHANNELS 3 Xrotation Yrotation Zrotation
										End Site
										{
											OFFSET 0 0 0
										}
									}
								}
							}
						}
						JOINT LeftShoulder_virtual
						{
							OFFSET 0.000000 0.000000 0.000000
							CHANNELS 3 Xrotation Yrotation Zrotation
							JOINT LeftShoulder
							{
								OFFSET 8.476499 7.247704 -3.868750
								CHANNELS 3 Xrotation Yrotation Zrotation
								JOINT LeftShoulder_split
								{
									OFFSET 8.476499 7.247704 -3.868750
									CHANNELS 3 Xrotation Yrotation Zrotation
									JOINT LeftArm
									{
										OFFSET 9.308998 -2.777710 0.208600
										CHANNELS 3 Xrotation Yrotation Zrotation
										JOINT LeftForeArm
										{
											OFFSET 29.972298 0.000000 0.000000
											CHANNELS 3 Xrotation Yrotation Zrotation
											JOINT LeftHand
											{
												OFFSET 26.026505 0.000000 0.000000
												CHANNELS 3 Xrotation Yrotation Zrotation
												End Site
												{
													OFFSET 0 0 0
												}
											}
										}
									}
								}
							}
						}
						JOINT RightShoulder_virtual
						{
							OFFSET 0.000000 0.000000 0.000000
							CHANNELS 3 Xrotation Yrotation Zrotation
							JOINT RightShoulder
							{
								OFFSET -7.570500 7.247704 -3.868750
								CHANNELS 3 Xrotation Yrotation Zrotation
								JOINT RightShoulder_split
								{
									OFFSET -7.570500 7.247704 -3.868750
									CHANNELS 3 Xrotation Yrotation Zrotation
									JOINT RightArm
									{
										OFFSET -9.308998 -2.777710 0.208500
										CHANNELS 3 Xrotation Yrotation Zrotation
										JOINT RightForeArm
										{
											OFFSET -29.972300 0.000000 0.000000
											CHANNELS 3 Xrotation Yrotation Zrotation
											JOINT RightHand
											{
												OFFSET -26.026505 0.000000 0.000000
												CHANNELS 3 Xrotation Yrotation Zrotation
												End Site
												{
													OFFSET 0 0 0
												}
											}
										}
									}
								}
							}
						}
					}
				}
			}
		}
	}
}
MOTION
Frames: 9
Frame Time: 0.03333333
1.078556 80.704857 -5.697956 0.000000 0.000000 0.000000 -3.174807 34.697484 9.507323 -28.868863 -8.777639 5.902179 33.902402 -1.889584 1.214880 -2.597783 0.612453 -15.904060 0.436544 -3.580695 4.939743 0.000000 0.000000 0.000000 -2.171915 33.389059 8.941613 -2.435415 -32.225376 -16.425806 40.288697 11.765244 -2.747162 -39.653182 -25.009689 13.632425 0.844588 8.970617 -10.282542 0.000000 0.000000 0.000000 -2.911068 45.038974 9.188618 14.679116 -1.808209 -4.983846 3.827539 -6.073712 -0.234288 0.190521 0.483766 -0.220330 0.000000 0.000000 0.000000 4.145513 -3.265778 0.133921 -8.535868 -10.844448 14.602994 1.526824 -21.808511 -3.795059 0.000000 0.000000 0.000000 4.766717 -4.082820 -0.223458 4.568688 -5.635919 -11.479174 1.215904 -9.832360 -5.785451 -23.832367 -23.179031 -44.157996 65.252977 -30.902945 23.162582 0.000000 0.000000 0.000000 8.225360 -4.401051 -0.180604 -0.666913 -2.489407 -5.426545 1.578091 -4.032869 16.820078 -22.577802 -13.215409 19.512324 -150.947727 24.788041 156.915892 0.000000 0.000000 0.000000 
0.855639 81.101044 -5.398636 0.000000 0.000000 0.000000 -3.061135 33.471250 9.161623 -28.498213 -9.617343 6.097639 33.248090 -1.819530 1.497674 -2.739016 0.756473 -16.887824 0.742557 -3.693966 5.167372 0.000000 0.000000 0.000000 -2.122570 32.693554 8.698178 -1.219112 -32.584954 -14.820414 39.157365 11.161122 -2.332862 -40.537477 -25.220274 12.545728 1.787629 8.977115 -10.516873 0.000000 0.000000 0.000000 -2.501506 44.616548 8.508156 14.596410 -2.309641 -5.098919 3.654777 -6.946540 0.102230 0.162391 0.415872 -0.100323 0.000000 0.000000 0.000000 4.454235 -4.161848 0.524641 -7.603552 -9.933960 10.531262 1.224888 -17.911083 -3.128651 0.000000 0.000000 0.000000 4.466031 -4.968261 0.248400 4.384205 -7.184851 -12.160796 0.806144 -9.545466 -5.464323 -21.744479 -17.465673 -43.176269 66.282956 -31.616041 23.420826 0.000000 0.000000 0.000000 7.823119 -5.322403 0.386872 0.254497 -3.952172 2.280915 1.579482 -1.647198 14.705863 -20.353895 -30.074498 20.502194 -149.011396 25.148196 157.454671 0.000000 0.000000 0.000000 
0.829909 81.679710 -5.154171 0.000000 0.000000 0.000000 -2.574669 31.670460 8.390116 -27.576409 -10.172676 6.623316 32.772702 -1.772863 1.710841 -3.516183 1.427142 -18.059792 0.940366 -3.784989 5.315109 0.000000 0.000000 0.000000 -1.795987 31.085086 8.026949 -0.719802 -32.482850 -13.289862 37.817210 10.641872 -1.879527 -40.555976 -25.146707 11.415631 2.690867 8.962076 -10.600261 0.000000 0.000000 0.000000 -1.803361 43.448828 7.482266 14.719500 -2.812976 -4.649562 3.705697 -7.698328 0.339340 0.152504 0.277435 -0.034772 0.000000 0.000000 0.000000 4.999567 -4.947525 0.896034 -6.797631 -8.955285 6.955487 0.482068 -13.946928 -2.914654 0.000000 0.000000 0.000000 4.542130 -5.760658 0.560322 4.186877 -8.725655 -13.055480 0.434903 -9.408929 -4.983426 -19.003087 -12.881725 -42.260061 65.549394 -30.925488 22.303054 0.000000 0.000000 0.000000 7.503478 -6.155048 0.806166 1.278554 -3.656296 8.259247 0.956066 -0.069781 12.408367 -23.887217 -41.599848 20.707141 -146.612155 25.682768 157.419154 0.000000 0.000000 0.000000 
0.955879 82.305183 -5.037804 0.000000 0.000000 0.000000 -1.921006 29.447459 7.383088 -26.167134 -10.262722 7.411460 32.633087 -1.801724 1.847688 -4.815513 2.468160 -19.212750 0.875229 -3.875480 5.373481 0.000000 0.000000 0.000000 -1.294261 28.670750 7.080403 -1.173760 -31.907563 -12.129523 36.702575 10.332926 -1.486391 -39.460229 -24.810334 10.717817 3.150336 8.939265 -10.583659 0.000000 0.000000 0.000000 -1.044630 41.460485 6.305165 15.034824 -3.382368 -3.862541 3.898235 -8.221800 0.435305 0.136502 0.076229 -0.016283 0.000000 0.000000 0.000000 5.645034 -5.520951 1.155085 -6.112907 -8.023335 4.005719 -0.485025 -9.750441 -3.183054 0.000000 0.000000 0.000000 4.931601 -6.366366 0.685922 4.074127 -10.064654 -13.875909 -0.177343 -8.991687 -4.575878 -16.448301 -9.144145 -41.621616 64.233059 -29.247075 21.082631 0.000000 0.000000 0.000000 7.286690 -6.797755 1.024327 2.104996 -2.436752 11.812496 1.332434 1.211444 9.426947 -32.528499 -48.083289 17.335078 -144.545231 25.532149 157.438975 0.000000 0.000000 0.000000 
1.210294 82.851501 -5.105080 0.000000 0.000000 0.000000 -1.229340 27.017348 6.308091 -24.484714 -9.771542 8.401250 32.740464 -1.983433 1.837634 -6.302704 3.583090 -20.196214 0.600340 -3.980103 5.353597 0.000000 0.000000 0.000000 -0.772766 25.779378 6.070375 -2.449882 -30.869866 -11.506091 36.007890 10.238236 -1.145308 -37.592391 -24.237872 10.366557 3.523575 8.867769 -10.568977 0.000000 0.000000 0.000000 -0.420524 38.788084 5.174763 15.496156 -4.067823 -3.025882 4.116940 -8.459620 0.412927 0.157029 -0.065300 -0.086224 0.000000 0.000000 0.000000 6.161938 -5.815732 1.234242 -5.488164 -7.336261 1.859176 -1.337550 -5.173995 -3.832002 0.000000 0.000000 0.000000 5.467871 -6.742960 0.635379 4.078306 -10.984627 -14.524343 -0.800437 -8.355806 -4.035084 -14.267913 -5.786906 -41.352383 64.001154 -27.888281 21.487999 0.000000 0.000000 0.000000 7.243469 -7.187633 1.083171 2.792270 -1.083905 12.938903 2.217808 2.358640 6.800792 -42.171722 -49.660028 11.438361 -142.938552 25.046507 157.555484 0.000000 0.000000 0.000000 
1.548182 83.295860 -5.339737 0.000000 0.000000 0.000000 -0.678031 24.799078 5.341619 -22.900144 -8.719341 9.515444 32.972137 -2.306703 1.647507 -7.598451 4.514099 -20.973745 0.389740 -4.088010 5.209998 0.000000 0.000000 0.000000 -0.302627 23.056478 5.162963 -4.139267 -29.398480 -11.336007 35.481323 10.255195 -0.877622 -35.581754 -23.484762 10.076649 4.369014 8.718900 -10.646475 0.000000 0.000000 0.000000 -0.033601 35.909979 4.254694 16.003673 -4.883799 -2.352541 4.271943 -8.377019 0.332215 0.207348 -0.108757 -0.148461 0.000000 0.000000 0.000000 6.389166 -5.816032 1.144302 -4.759953 -6.987825 0.653657 -1.798552 -0.714666 -4.733943 0.000000 0.000000 0.000000 5.954500 -6.831835 0.441155 4.179165 -11.424300 -14.920488 -1.306652 -7.593509 -3.189453 -12.615166 -2.454137 -41.649766 65.591181 -27.427852 24.088506 0.000000 0.000000 0.000000 7.322522 -7.252326 1.046442 3.419321 -0.201712 12.404132 3.058428 3.178112 5.432447 -47.739092 -47.594568 6.942109 -141.602580 24.731299 157.544488 0.000000 0.000000 0.000000 
1.890648 83.634094 -5.676426 0.000000 0.000000 0.000000 -0.408493 23.255717 4.575928 -21.632698 -7.235900 10.619193 33.166156 -2.694489 1.289662 -8.417356 5.116800 -21.456384 0.388972 -4.193232 4.956662 0.000000 0.000000 0.000000 0.092134 21.010960 4.428723 -5.677367 -27.527230 -11.374023 35.148669 10.220056 -0.728056 -33.792149 -22.742619 9.638426 5.509690 8.534846 -10.856016 0.000000 0.000000 0.000000 0.138757 33.293078 3.552261 16.383812 -5.803781 -1.983329 4.290733 -7.997688 0.254033 0.224689 -0.092531 -0.149416 0.000000 0.000000 0.000000 6.273944 -5.528171 0.956010 -3.969185 -6.999982 0.540716 -1.912164 3.232654 -5.831099 0.000000 0.000000 0.000000 6.184401 -6.649937 0.161606 4.288654 -11.599867 -15.160500 -1.700383 -6.912089 -2.483124 -11.644861 0.766686 -42.504998 68.629515 -27.710007 28.331348 0.000000 0.000000 0.000000 7.392643 -6.945961 0.976035 3.942025 -0.079722 11.335667 4.372341 3.173919 6.010790 -47.746096 -44.354880 5.553240 -140.623978 24.803612 157.213538 0.000000 0.000000 0.000000 
2.227481 83.908119 -6.000809 0.000000 0.000000 0.000000 -0.336142 22.488441 4.061750 -20.691563 -5.484049 11.541556 33.109895 -2.944260 0.806908 -8.863925 5.468245 -21.435297 0.548791 -4.301920 4.641866 0.000000 0.000000 0.000000 0.363896 19.813359 3.930929 -6.688050 -25.453475 -11.484686 34.939201 10.076079 -0.690844 -32.172295 -22.191542 9.285828 6.241311 8.402512 -11.205861 0.000000 0.000000 0.000000 0.103190 31.433651 3.135965 16.546294 -6.739435 -1.898128 4.189545 -7.368816 0.208445 0.172919 -0.058522 -0.093073 0.000000 0.000000 0.000000 5.889401 -4.992252 0.745370 -3.203645 -7.270676 1.478988 -1.770416 6.887969 -7.223791 0.000000 0.000000 0.000000 6.133562 -6.202025 -0.139726 4.312405 -11.758074 -15.364408 -1.840235 -6.386186 -1.874632 -10.901407 3.410199 -43.564101 71.875884 -28.316880 33.006452 0.000000 0.000000 0.000000 7.362584 -6.294202 0.918527 4.295415 -0.639114 10.255015 4.182095 3.146496 8.442970 -44.168067 -41.294852 7.093711 -139.971422 25.460143 156.376361 0.000000 0.000000 0.000000 
2.500492 84.120331 -6.245960 0.000000 0.000000 0.000000 -0.416643 22.400975 3.793096 -20.001336 -3.753638 12.142038 32.761757 -2.888080 0.313365 -9.155710 5.652673 -20.826765 0.585249 -4.417656 4.364340 0.000000 0.000000 0.000000 0.479630 19.480536 3.653462 -7.113730 -23.461256 -11.561237 34.766192 9.899657 -0.789812 -30.632394 -21.907439 9.449314 6.002864 8.390698 -11.663901 0.000000 0.000000 0.000000 -0.139965 30.464218 2.981119 16.449930 -7.583614 -1.997075 4.032436 -6.548049 0.176320 0.071081 -0.025087 0.008178 0.000000 0.000000 0.000000 5.419949 -4.278448 0.514134 -2.586585 -7.582734 3.315377 -1.467136 10.356050 -8.794196 0.000000 0.000000 0.000000 5.857051 -5.555602 -0.397333 4.203110 -12.123885 -15.541011 -1.804616 -5.967906 -1.500773 -10.484400 5.217301 -44.364483 73.631263 -28.897776 36.492745 0.000000 0.000000 0.000000 7.160452 -5.407307 0.883788 4.408943 -1.594908 9.498944 2.771345 3.896144 11.037914 -40.035717 -38.686331 10.471714 -139.733677 26.747495 155.094635 0.000000 0.000000 0.000000 
